<svg width="58" height="58" viewBox="0 0 58 58" fill="none" xmlns="http://www.w3.org/2000/svg">
<path d="M58.5557 29.999C58.5557 35.6481 56.8806 41.1703 53.7421 45.8673C50.6037 50.5643 46.1429 54.2252 40.9238 56.387C35.7048 58.5488 29.9619 59.1145 24.4214 58.0124C18.8808 56.9103 13.7916 54.19 9.79707 50.1955C5.80258 46.201 3.0823 41.1118 1.98022 35.5712C0.878146 30.0307 1.44377 24.2878 3.60557 19.0688C5.76737 13.8497 9.42826 9.38893 14.1253 6.25048C18.8223 3.11203 24.3445 1.43689 29.9936 1.43689C33.7444 1.43689 37.4585 2.17567 40.9238 3.61105C44.3891 5.04644 47.5378 7.15031 50.19 9.80255C52.8423 12.4548 54.9462 15.6035 56.3815 19.0688C57.8169 22.5341 58.5557 26.2482 58.5557 29.999" fill="#042354"/>
<path d="M29.9968 7.02445e-07C24.0633 0.000642676 18.2633 1.76074 13.3302 5.05771C8.39709 8.35469 4.55242 13.0405 2.28238 18.5225C0.0123498 24.0045 -0.581098 30.0366 0.577088 35.8559C1.73527 41.6752 4.59307 47.0204 8.7891 51.2155C12.9851 55.4106 18.3309 58.2672 24.1505 59.4242C29.97 60.5811 36.002 59.9863 41.4835 57.7151C46.965 55.4439 51.65 51.5982 54.9459 46.6644C58.2418 41.7306 60.0006 35.9302 60 29.9967C60 26.057 59.2239 22.1558 57.716 18.516C56.2081 14.8762 53.998 11.5691 51.2119 8.78355C48.4257 5.99801 45.1181 3.7886 41.478 2.2815C37.8379 0.774408 33.9365 -0.000851878 29.9968 7.02445e-07V7.02445e-07ZM30.8341 57.3418C17.1146 58.2246 6.88089 47.6663 4.73549 41.1814C4.80365 41.1295 4.9562 41.0386 4.9562 41.0386C8.27005 40.1006 11.4833 41.7884 15.1282 44.8523C17.7637 47.0691 23.0218 53.1418 29.4677 56.0565C29.9538 56.33 30.4645 56.5571 30.9932 56.7348C30.9932 56.8095 30.8731 57.186 30.8341 57.3418V57.3418ZM40.5258 55.3002C40.0779 55.4657 36.7251 56.5336 34.1188 55.8098C33.619 55.6637 33.1451 55.5079 32.655 55.3294C29.0847 54.0084 25.7968 51.8241 22.6842 49.3995C18.7634 46.3388 15.9039 42.3758 10.6362 39.8961C10.6714 39.8106 10.6964 39.7213 10.7108 39.63C13.6319 39.974 17.3061 40.3343 22.1292 43.2911C23.9922 44.4304 31.6358 48.9386 32.655 49.4385C34.7191 50.4401 36.8607 51.2737 39.0587 51.9312C40.302 52.2913 41.5658 52.5764 42.8432 52.7848C42.8432 52.7848 43.8689 52.9114 44.1805 52.9406L44.3784 53.408C43.1467 54.132 41.8634 54.7645 40.5388 55.3002H40.5258ZM49.8702 49.1334C46.8517 51.7299 42.5576 51.1717 39.6235 50.4706C35.1282 49.3865 27.9552 45.3229 26.0727 44.0798C26.1181 44.0279 26.2382 43.8526 26.2837 43.8039C29.789 45.06 43.9305 48.6141 53.1159 43.9435C53.184 44.0149 53.2457 44.0928 53.3106 44.161C53.3755 44.2291 53.5443 44.3849 53.6157 44.4531C52.5317 46.138 51.2766 47.7065 49.8702 49.1334V49.1334ZM48.1532 43.7715C48.5352 43.3878 48.8258 42.9229 49.0036 42.4115L50.3018 38.3771H48.2863C46.6926 40.7952 42.8627 40.4284 39.6884 38.4583C34.6933 35.3457 31.2301 33.4339 28.7796 33.2879C28.4544 33.2681 28.1279 33.2833 27.8059 33.3333V33.3333C28.1889 37.1632 28.9419 39.5391 29.3671 40.6297C29.4629 40.8742 29.5713 41.1136 29.6917 41.347L29.2113 41.2398C29.0766 41.0691 28.9509 40.8914 28.8348 40.7076C28.2408 39.7988 27.0659 37.6891 26.1344 34.0798C25.4141 34.6539 24.9328 35.4752 24.7842 36.3843C24.7555 36.6505 24.7415 36.9182 24.742 37.186L25.7579 39.5618L27.0821 42.6485C26.6115 42.4732 26.0143 42.2233 25.3262 41.9409C20.6232 39.9935 11.0841 36.0273 3.85266 39.3995C2.4829 35.5859 1.96373 31.5188 2.33155 27.4833C2.69937 23.4479 3.94526 19.5417 5.98192 16.0385C8.01858 12.5353 10.7967 9.51994 14.1216 7.20367C17.4466 4.8874 21.2378 3.32629 25.2297 2.62976C29.2216 1.93322 33.3175 2.11811 37.2304 3.17147C41.1432 4.22482 44.7784 6.12116 47.8811 8.72757C50.9839 11.334 53.479 14.5874 55.1918 18.2598C56.9045 21.9323 57.7934 25.9348 57.7962 29.987C57.7962 32.4927 57.2769 36.1149 56.8225 37.2314C55.3035 40.6751 52.1454 42.7231 48.1402 43.7455" fill="white"/>
<path d="M44.8976 26.747C45.2362 24.522 45.9693 22.3754 47.0625 20.4081C44.5278 18.9083 41.6467 18.0934 38.702 18.0433C35.7573 17.9933 32.8502 18.7098 30.266 20.1225C29.8242 20.9348 29.4487 21.7814 29.143 22.6541V22.6541V22.6833C28.1501 22.9558 27.1926 23.3436 26.29 23.8388C25.3281 25.298 24.7951 26.9979 24.7514 28.7451C24.7078 30.4922 25.1554 32.2166 26.0433 33.722L25.7967 32.216C26.5695 31.7195 27.4752 31.4704 28.3932 31.5019C31.0871 31.5019 34.7743 33.0988 38.734 35.981C38.7015 35.8966 38.6691 35.8122 38.6399 35.7278C37.2465 31.8743 37.3624 27.6363 38.9645 23.8648C37.6285 23.1283 36.1742 22.6307 34.6671 22.3945L34.7321 22.1868C36.5552 22.3309 38.3418 22.7762 40.0193 23.5045C38.85 26.965 38.9165 30.7238 40.2076 34.1407C42.624 35.0634 44.7905 36.5397 46.5334 38.4509L46.7606 38.3503C44.9424 34.7734 44.2909 30.7166 44.8976 26.7502" fill="white"/>
<path d="M17.1118 20.8371C17.2903 22.7585 17.6149 26.0302 17.6149 26.0302H18.1926C18.1926 26.0302 18.5172 22.7423 18.7087 20.8371C18.8158 19.6751 19.2767 19.1623 20.1043 18.961C20.7729 18.7923 22.8956 18.5002 22.8956 18.5002V17.9484C21.9128 17.8525 20.9372 17.6943 19.9745 17.4745C19.6439 17.4032 19.3408 17.2383 19.1014 16.9994C18.862 16.7606 18.6964 16.4579 18.6243 16.1275C18.4263 15.3875 18.1764 13.0798 18.1764 13.0798H17.6343C17.5296 14.1029 17.3736 15.1201 17.1669 16.1275C17.098 16.4583 16.9342 16.7618 16.6955 17.001C16.4569 17.2402 16.1538 17.4047 15.8232 17.4745C15.1157 17.7114 12.9021 17.9484 12.9021 17.9484V18.5002C12.9021 18.5002 15.0086 18.8052 15.6934 18.974C16.5211 19.1753 16.9917 19.6881 17.102 20.85" fill="white"/>
<path d="M39.6948 15.3484L39.2209 17.4257C37.7959 16.2273 36.0254 15.5154 34.1674 15.3939L34.0895 15.0888C34.9798 14.6938 35.9499 14.5116 36.9228 14.5566C37.8958 14.6017 38.8448 14.8728 39.6948 15.3484" fill="white"/>
</svg>